<?xml version="1.0" encoding="utf-8"?>
<!-- Generator: Adobe Illustrator 17.0.0, SVG Export Plug-In . SVG Version: 6.00 Build 0)  -->
<!DOCTYPE svg PUBLIC "-//W3C//DTD SVG 1.1//EN" "http://www.w3.org/Graphics/SVG/1.1/DTD/svg11.dtd">
<svg version="1.1" id="Capa_1" xmlns="http://www.w3.org/2000/svg" xmlns:xlink="http://www.w3.org/1999/xlink" x="0px" y="0px"
	 width="141.73px" height="100.667px" viewBox="0 0 141.73 100.667" enable-background="new 0 0 141.73 100.667"
	 xml:space="preserve">
<g>
	<path d="M23.364,39.745c2.062,2.045,3.953,3.912,5.833,5.789c4.353,4.345,8.705,8.691,13.05,13.043
		c1.295,1.297,1.776,2.841,1.198,4.611c-0.575,1.76-1.844,2.782-3.661,3.046c-1.546,0.225-2.817-0.381-3.904-1.47
		c-4.527-4.537-9.064-9.063-13.598-13.594c-4.131-4.129-8.264-8.256-12.393-12.386c-2.274-2.274-2.259-4.777,0.014-7.046
		c8.632-8.619,17.259-17.243,25.887-25.865c1.691-1.69,3.71-2.08,5.559-1.076c2.654,1.442,3.126,4.899,0.929,7.115
		c-3.858,3.89-7.745,7.751-11.621,11.624c-2.175,2.174-4.352,4.347-6.526,6.522c-0.196,0.196-0.382,0.403-0.714,0.754
		c0.486,0,0.805,0,1.124,0c25.406,0,50.811,0.002,76.217-0.001c7.503-0.001,14.262,2.19,20.07,6.986
		c6.693,5.526,10.59,12.627,11.305,21.306c1.167,14.182-6.835,26.77-20.097,31.808c-3.29,1.25-6.714,1.9-10.232,1.907
		c-11.94,0.024-23.881,0.013-35.821,0.009c-2.628-0.001-4.593-1.91-4.593-4.43c0-2.526,1.956-4.421,4.593-4.422
		c11.708-0.005,23.416,0.016,35.123-0.01c6.125-0.014,11.491-2.099,15.764-6.493c6.069-6.242,8.075-13.733,5.522-22.062
		c-2.558-8.346-8.407-13.424-16.952-15.283c-1.426-0.31-2.921-0.414-4.385-0.416c-25.561-0.024-51.122-0.018-76.682-0.016
		C24.124,39.695,23.873,39.719,23.364,39.745z"/>
</g>
</svg>
