<?xml version="1.0" encoding="utf-8"?>
<!-- Generator: Adobe Illustrator 17.0.0, SVG Export Plug-In . SVG Version: 6.00 Build 0)  -->
<!DOCTYPE svg PUBLIC "-//W3C//DTD SVG 1.1//EN" "http://www.w3.org/Graphics/SVG/1.1/DTD/svg11.dtd">
<svg version="1.1" id="Capa_1" xmlns="http://www.w3.org/2000/svg" xmlns:xlink="http://www.w3.org/1999/xlink" x="0px" y="0px"
	 width="141.73px" height="141.73px" viewBox="0 0 141.73 141.73" enable-background="new 0 0 141.73 141.73" xml:space="preserve">
<g>
	<g id="XMLID_1_">
		<g>
			<path d="M115.705,84.665c-0.7,0.46-1.39,0.92-2.09,1.39c-0.7,0.46-1.39,0.94-2.09,1.41c-0.04,0.03-0.08,0.06-0.11,0.11
				c-0.07,0.08-0.13,0.18-0.17,0.3c-0.05,0.11-0.09,0.24-0.12,0.37c-0.04,0.13-0.07,0.26-0.11,0.39c-0.02,0.06-0.05,0.12-0.07,0.18
				c0.48,0.04,1.1,0.3,1.43,0.1c2.84-1.78,5.63-3.63,8.42-5.49c0.32-0.22,0.53-0.62,0.79-0.94c-0.03-0.18-0.05-0.37-0.08-0.55
				c-0.53,0-1.18-0.21-1.56,0.03C118.525,82.845,117.105,83.755,115.705,84.665z M116.795,78.175c-2.57,2.26-5.15,4.5-7.68,6.81
				c-0.24,0.22-0.11,0.85-0.15,1.3c0.48-0.06,1.11,0.04,1.42-0.22c1.15-0.95,2.16-2.06,3.29-3.04c1.35-1.19,2.79-2.3,4.14-3.49
				c0.28-0.24,0.5-0.72,0.49-1.08c-0.01-0.23-0.49-0.44-0.75-0.66C117.245,77.955,116.975,78.025,116.795,78.175z M107.475,84.245
				c1.77-2.2,3.55-4.4,5.3-6.63c0.55-0.7,1.1-1.4,1.65-2.11c0.07-0.09,0.1-0.2,0.1-0.33c0.01-0.12,0.01-0.25,0-0.38
				c-0.02-0.25-0.06-0.52-0.06-0.75h-0.01c-0.43,0.12-1,0.09-1.26,0.36h-0.01c-1.28,1.36-2.51,2.76-3.68,4.21
				c-1.17,1.44-2.31,2.93-3.33,4.48c-0.25,0.38,0,1.09,0.03,2.11h0.01c0.1-0.08,0.19-0.14,0.27-0.2
				C107.075,84.565,107.315,84.435,107.475,84.245z M128.885,82.025c1.45,3.26,0.8,5.64-2.45,7.14c-5.08,2.35-10.31,4.41-15.51,6.48
				c-2.29,0.91-4.3,0.12-5.91-1.65c-0.62-0.68-1.16-1.44-1.83-2.27c-9.86,4.53-19.27,9.67-28.46,16.45c2.84,1.36,5.11,2.6,7.5,3.55
				c7.04,2.8,13.77,6.17,20.06,10.41c1.11,0.75,2.58,1.43,2.14,3.14c-0.44,1.7-1.86,2.76-3.48,2.61c-2.24-0.2-4.63-0.55-6.59-1.56
				c-5.6-2.88-11.01-6.12-16.5-9.22c-1.9-1.08-3.88-2.04-5.68-3.26c-2.23-1.51-4.12-1.2-6.13,0.4c-5.29,4.2-10.54,8.43-15.98,12.41
				c-2.38,1.75-5.1,3.09-7.8,4.28c-1.89,0.83-3.91-0.16-4.62-1.75c-0.74-1.67-0.09-3.44,1.66-4.67c7.15-5.03,14.3-10.05,21.45-15.08
				c0.35-0.25,0.68-0.54,1.31-1.03c-1.19-0.67-2.16-1.21-3.13-1.74c-6.23-3.44-12.48-6.84-18.67-10.34
				c-1.65-0.95-2.98-0.95-4.65,0.05c-9,5.39-20.51,0.5-22.56-9.5c-1.22-5.94,3.01-11.66,9.07-12.3c5.91-0.6,10.5,1.82,13.92,6.44
				c1.39,1.88,2.41,4.07,3.31,6.25c0.7,1.71,1.64,3.06,3.25,3.92c8.26,4.4,16.51,8.82,24.82,13.12c0.67,0.35,1.94,0.09,2.69-0.33
				c6.6-3.67,13.11-7.49,19.72-11.14c2.56-1.41,5.29-2.51,7.93-3.79c2.06-0.99,1.97-1.42,1.48-3.59c-0.36-1.54-0.36-3.49,0.29-4.87
				c2.44-5.14,5.95-9.55,10.57-12.91c3.3-2.4,6.17-2.06,9.12,0.69C123.375,72.245,126.585,76.825,128.885,82.025z"/>
			<path fill="#FFFFFF" d="M113.195,74.405c-1.28,1.36-2.51,2.76-3.68,4.21c-1.17,1.44-2.31,2.93-3.33,4.48
				c-0.25,0.38,0,1.09,0.03,2.1v0.01h-0.01c-0.03-1.02-0.28-1.73-0.03-2.11c1.02-1.55,2.16-3.04,3.33-4.48
				c1.17-1.45,2.4-2.85,3.68-4.21H113.195z"/>
			<path d="M70.965,51.555c-3.68,2.46-7.44,4.81-11.15,7.23c-2.03,1.34-2.96,3.03-2.61,5.69c0.61,4.55,0.03,9.1-1.14,13.55
				c-0.09,0.34-0.14,0.7-0.23,1.2c3.73-1.02,7.32-1.93,10.88-2.97c7.72-2.27,15.18-1.73,22.31,2.07c1.31,0.69,2.6,1.53,3.65,2.55
				c1.58,1.54,1.5,3.59-0.08,5.15c-0.69,0.69-1.54,1.31-2.43,1.71c-10.92,4.87-22.32,6.64-34.17,4.9c-4.48-0.65-7.43-3.45-7.81-7.36
				c-0.15-1.45,0.23-3.19,0.98-4.43c2.36-3.87,2.6-8,2.18-12.3c-0.23-2.34-1.32-2.94-3.56-2.04c-6.28,2.55-12.45,2.28-18.39-0.98
				c-6.41-3.52-8.6-10.36-5.07-16.79c1.43-2.62,3.72-4.79,5.79-7.01c1.01-1.09,1.82-2.07,1.94-3.65c0.42-5.54,2.39-10.48,6.37-14.41
				c5.1-5.04,11.24-6.78,18.23-5.15c1.4,0.33,2.46,0.11,3.42-0.81c6.26-6.04,14.05-6.86,22.02-5.85
				c18.39,2.32,30.23,13.37,37.88,29.57c2.15,4.57,0.97,8.1-3.77,9.82c-4.66,1.68-9.59,2.69-14.44,3.8c-2.6,0.6-5.29,0.83-7.95,1.19
				c-1.96,0.27-2.69,1.01-2.14,2.87c0.73,2.49,1.78,4.89,2.73,7.31c0.25,0.63,0.88,1.17,0.96,1.79c0.1,0.79,0.06,1.81-0.39,2.36
				c-0.28,0.35-1.65,0.32-2.08-0.05c-1.7-1.43-3.61-2.83-4.7-4.68c-3.2-5.39-3.59-11.24-1.54-17.13c0.53-1.51,1.68-2.92,2.85-4.05
				c1.15-1.11,2.7-1.03,3.85,0.21c1.2,1.29,0.4,2.4-0.57,3.41c-0.18,0.18-0.43,0.33-0.52,0.54c-0.32,0.82-0.58,1.66-0.87,2.49
				c0.73,0.04,1.5,0.23,2.19,0.08c6.46-1.35,12.28-4.11,17.49-8.16c1.94-1.51,2.3-2.68,1.61-5.06c-1.03-3.55-3.2-6.38-5.95-8.69
				c-3.87-3.25-7.88-6.34-11.87-9.45c-2.31-1.79-5.02-2.42-7.88-2.59c-6.37-0.39-12.45,0.53-17.97,3.96
				c-1.69,1.05-2.96,2.3-3.15,4.56c-0.07,0.91-1.24,2.22-2.11,2.43c-0.98,0.24-2.58-0.25-3.27-1c-3.9-4.27-8.52-4.95-13.28-1.65
				c-2.89,2-5.04,4.68-6.61,7.78c-1.35,2.68-1.16,4.6,1.22,6.7c0.59,0.52,1.12,1.72,0.91,2.36c-0.2,0.62-1.36,1.2-2.16,1.29
				c-5.29,0.59-7.82,2.94-8.22,7.86c-0.39,4.82,2.78,9.37,7.3,10.48c3.15,0.77,6.09,0.26,8.7-1.65c0.49-0.36,0.84-1.33,0.77-1.96
				c-0.22-1.96-0.68-3.91-1.05-5.88c1.63-0.84,2.67,0.31,3.8,0.96c3.89,2.26,8.32,0.38,9.09-3.95c0.17-0.94-0.2-1.96-0.19-2.95
				c0-0.67,0.04-1.73,0.42-1.92c0.65-0.34,1.72-0.41,2.36-0.09c0.78,0.39,1.39,1.24,1.9,2c1.15,1.7,2.55,2.64,4.72,2.3
				c0.66-0.1,1.41,0.42,2.12,0.65C71.845,50.345,71.545,51.165,70.965,51.555z M59.385,87.815c1.33,0.28,2.71,0.63,4.04,0.53
				c7.72-0.59,15.33-1.87,22.79-3.96c0.61-0.17,1.16-0.53,1.97-0.91c-0.58-0.47-0.88-0.76-1.22-1c-4.33-3.03-9.12-3.3-14.14-2.41
				c-4.99,0.88-9.58,2.69-13.72,5.61c-0.42,0.29-0.67,0.82-1,1.23C58.525,87.225,58.915,87.725,59.385,87.815z"/>
		</g>
		<g>
		</g>
	</g>
</g>
</svg>
